<?xml version="1.0" encoding="UTF-8" standalone="no"?>
<!-- Created with Inkscape (http://www.inkscape.org/) -->

<svg
   version="1.1"
   id="svg1"
   width="32.90844"
   height="37.807892"
   viewBox="0 0 32.90844 37.807892"
   sodipodi:docname="logo.svg"
   inkscape:version="1.3 (0e150ed6c4, 2023-07-21)"
   xmlns:inkscape="http://www.inkscape.org/namespaces/inkscape"
   xmlns:sodipodi="http://sodipodi.sourceforge.net/DTD/sodipodi-0.dtd"
   xmlns="http://www.w3.org/2000/svg"
   xmlns:svg="http://www.w3.org/2000/svg">
  <defs
     id="defs1">
    <clipPath
       clipPathUnits="userSpaceOnUse"
       id="clipPath2">
      <rect
         style="fill:#ffffff;fill-opacity:1"
         id="rect2"
         width="32.507778"
         height="37.406208"
         x="0.51474565"
         y="-0.074480765" />
    </clipPath>
  </defs>
  <sodipodi:namedview
     id="namedview1"
     pagecolor="#ffffff"
     bordercolor="#000000"
     borderopacity="0.25"
     inkscape:showpageshadow="2"
     inkscape:pageopacity="0.0"
     inkscape:pagecheckerboard="0"
     inkscape:deskcolor="#d1d1d1"
     inkscape:zoom="8.9824658"
     inkscape:cx="30.336881"
     inkscape:cy="30.559537"
     inkscape:window-width="1920"
     inkscape:window-height="1009"
     inkscape:window-x="-8"
     inkscape:window-y="-8"
     inkscape:window-maximized="1"
     inkscape:current-layer="g1" />
  <g
     inkscape:groupmode="layer"
     inkscape:label="Image"
     id="g1"
     transform="translate(-0.29209077,-0.03684636)">
    <path
       style="fill:#000000;stroke-width:0.476106"
       d="m 14.99424,36.875761 -1.675893,-0.968975 -0.04308,-1.694007 c -0.02369,-0.931704 -0.07301,-1.694007 -0.109591,-1.694007 -0.03658,0 -0.666225,0.354223 -1.399206,0.787162 -0.732981,0.432939 -1.403537,0.785168 -1.490124,0.782731 -0.08659,-0.0024 -0.8773041,-0.425182 -1.7571471,-0.939433 L 6.9194847,32.214228 6.8433078,30.465413 6.7671308,28.716597 5.3406981,29.551208 c -0.7845378,0.459035 -1.4598382,0.83461 -1.5006672,0.83461 -0.1504556,0 -3.12207103,-1.72885 -3.33137433,-1.938154 -0.1824771,-0.182476 -0.2165658,-1.687315 -0.2165658,-9.560172 V 9.5438846 L 8.5192009,4.7903654 16.74631,0.03684636 l 8.22711,4.75351904 8.22711,4.7535192 -0.0024,9.3164004 c -0.0014,5.124021 -0.0527,9.391339 -0.114265,9.482929 -0.109228,0.162507 -2.824227,1.800576 -3.264125,1.969381 -0.121764,0.04673 -0.867793,-0.293259 -1.657853,-0.755521 l -1.436464,-0.840477 -0.07618,1.747842 -0.07618,1.747843 -1.599715,0.933251 c -0.879844,0.513288 -1.668275,0.934479 -1.75207,0.935978 -0.08379,0.0015 -0.757651,-0.349503 -1.497464,-0.780006 -0.739817,-0.430503 -1.371742,-0.782733 -1.404284,-0.782733 -0.03257,0 -0.07856,0.762303 -0.102253,1.694007 l -0.04309,1.694007 -1.675891,0.968975 c -0.921741,0.532939 -1.710173,0.968976 -1.75207,0.968976 -0.0419,0 -0.830329,-0.436037 -1.75207,-0.968976 z m 1.410481,-8.805243 -0.0393,-9.018871 -1.25692,-0.724328 -1.256919,-0.724328 -0.03527,7.153183 c -0.0194,3.93425 -0.03654,7.987243 -0.03809,9.00665 l -0.0028,1.853466 1.218831,0.729784 c 0.670357,0.401381 1.270794,0.732827 1.334304,0.73655 0.06351,0.0038 0.09779,-4.051727 0.07618,-9.012106 z m -6.362988,-3.66459 -9.99e-4,-9.026968 -1.2763941,-0.723681 c -0.702017,-0.398024 -1.319141,-0.723681 -1.371388,-0.723681 -0.05225,0 -0.07731,4.053799 -0.0557,9.00844 l 0.0393,9.00844 1.295008,0.741433 c 0.712255,0.407789 1.312148,0.741783 1.3330971,0.742209 0.02095,4.27e-4 0.03764,-4.06136 0.03708,-9.026192 z m 12.951082,-0.0018 v -9.028753 l -2.93281,-1.693618 c -3.346231,-1.932356 -3.133458,-1.946053 -3.008988,0.193704 l 0.07618,1.309547 1.523539,0.880325 1.523538,0.880323 0.07618,7.497804 0.07618,7.497803 1.218831,0.735087 c 0.670354,0.404298 1.270248,0.739918 1.333094,0.745821 0.06285,0.0059 0.114265,-4.05221 0.114265,-9.018031 z M 3.4546413,20.603683 3.4153435,11.583328 2.1979303,10.866706 C 1.528353,10.472564 0.92745927,10.182876 0.86261037,10.222954 c -0.1594398,0.09854 -0.1368605,17.595094 0.023039,17.852741 0.12012113,0.193551 2.24910803,1.503639 2.49281333,1.53397 0.063511,0.0079 0.09779,-4.044788 0.076177,-9.005982 z m 25.9311327,-0.0066 -0.0059,-9.026968 -5.51692,-3.163462 C 20.82864,6.6667468 18.052275,5.0674433 17.693248,4.8526429 l -0.652778,-0.3905457 0.04336,1.6333358 0.04336,1.6333365 4.761058,2.7450255 4.761058,2.745026 0.0038,7.478933 0.0038,7.478932 1.253206,0.714467 c 0.689268,0.392956 1.30463,0.718612 1.367476,0.723681 0.06285,0.0051 0.111608,-4.052921 0.108361,-9.017753 z M 18.10007,17.892788 c 0.67725,-0.377076 1.232464,-0.729701 1.233809,-0.783612 0.0028,-0.10993 -2.405624,-1.501696 -2.598595,-1.501696 -0.172564,0 -2.579215,1.416533 -2.577992,1.517382 0.0014,0.115556 2.490871,1.536369 2.612127,1.490817 0.05461,-0.02051 0.653401,-0.345815 1.330651,-0.722891 z m 1.802796,-4.86705 c 1.737025,1.000985 3.228567,1.818487 3.314533,1.816671 0.08597,-0.0018 0.727537,-0.334508 1.425713,-0.739316 l 1.269408,-0.736014 -4.524808,-2.61247 C 18.899067,9.317751 16.810733,8.1421398 16.746969,8.1421398 c -0.203737,0 -8.9472131,5.0984592 -8.9791641,5.2358922 -0.01688,0.07262 0.536165,0.456141 1.228995,0.852268 l 1.2596901,0.720231 3.244071,-1.872383 3.24407,-1.872383 z m -9.47764,-5.6335449 6.320132,-3.6526384 6.463528,3.7338302 6.463528,3.7338301 1.236618,-0.718524 c 0.680137,-0.395188 1.267347,-0.768242 1.304902,-0.829009 0.07306,-0.1182136 -15.188975,-8.98288222 -15.465559,-8.98288222 -0.219222,0 -15.542528,8.84169742 -15.5408678,8.96723322 0.00233,0.177817 2.5085976,1.539057 2.7050656,1.469227 0.1058859,-0.03764 3.03658,-1.7121153 6.5126532,-3.7210669 z"
       id="path1"
       clip-path="url(#clipPath2)"
       transform="translate(0.11132795)" />
    <path
       style="fill:#ffffff;fill-opacity:1;stroke:#000000;stroke-width:0.111328"
       d="M 9.2051067,14.200824 C 8.6271437,13.85013 8.1357337,13.504227 8.1130847,13.43215 8.0509447,13.234413 16.478632,8.2726642 16.868968,8.2771762 c 0.206209,0.0024 8.840103,4.9402528 8.883929,5.0808688 0.05026,0.161251 -2.292174,1.403311 -2.529497,1.34125 -0.119133,-0.03115 -1.588165,-0.83807 -3.264515,-1.793146 -1.676351,-0.955076 -3.076711,-1.736502 -3.111911,-1.736502 -0.0352,0 -1.495978,0.82661 -3.246172,1.836912 -1.750195,1.010301 -3.218776,1.835782 -3.263513,1.834401 -0.04474,-0.0014 -0.5542203,-0.289442 -1.1321823,-0.640136 z"
       id="path2" />
    <path
       style="fill:#ffffff;fill-opacity:1;stroke:#000000;stroke-width:0.111328"
       d="M 3.0541117,10.623631 C 2.5866197,10.384553 2.0222537,10.065359 1.7999667,9.9143112 l -0.40416,-0.274633 1.702534,-1.003439 C 7.1840357,6.2282143 15.373959,1.5231282 16.319092,1.040957 c 0.242371,-0.12364801 0.509876,-0.22481461 0.594456,-0.22481461 0.23846,0 13.605607,7.70275181 14.960517,8.62092381 l 0.354468,0.24021 -1.151576,0.6905208 c -0.633367,0.379787 -1.211446,0.690522 -1.284621,0.690522 -0.07317,0 -2.903127,-1.6018868 -6.288781,-3.5597478 C 20.1179,5.5407105 17.225853,3.8832532 17.076785,3.8153331 16.830859,3.7032818 16.342526,3.9592756 11.805266,6.5787612 6.4702227,9.6588292 4.0150017,11.058319 3.9464707,11.058319 c -0.02331,0 -0.424867,-0.19561 -0.892359,-0.434688 z"
       id="path3" />
    <path
       style="fill:#ffffff;fill-opacity:1;stroke:#000000;stroke-width:0.111328"
       d="M 28.068428,28.833122 26.84382,28.141858 26.78816,20.633246 26.7325,13.124635 22.056724,10.428527 17.380948,7.7324182 17.295738,7.0853122 c -0.04687,-0.355908 -0.07192,-1.0559405 -0.05566,-1.5556276 l 0.02955,-0.908522 6.095208,3.5086066 6.095208,3.5086068 -0.01416,7.753419 c -0.0078,4.264382 -0.04536,8.288733 -0.0835,8.943005 l -0.06933,1.189584 z"
       id="path4" />
    <path
       style="fill:#ffffff;fill-opacity:1;stroke:#000000;stroke-width:0.111328"
       d="M 21.639236,32.588816 20.44246,31.86854 v -3.985595 c 0,-2.192077 -0.03301,-5.565418 -0.07335,-7.496312 L 20.29576,16.875917 18.823945,16.02426 c -1.297221,-0.750629 -1.480012,-0.892639 -1.54091,-1.197131 -0.111639,-0.558195 -0.0795,-2.413302 0.04312,-2.489087 0.145574,-0.08997 1.141938,0.423852 3.617273,1.865413 l 2.003904,1.167013 0.02849,8.976726 c 0.01567,4.937199 -0.0094,8.973389 -0.05566,8.969312 -0.04628,-0.0041 -0.622704,-0.331538 -1.280931,-0.72769 z"
       id="path5" />
    <path
       style="fill:#ffffff;fill-opacity:1;stroke:#000000;stroke-width:0.111328"
       d="m 15.181151,36.301944 -1.192908,-0.6958 -0.0014,-8.934073 c -7.72e-4,-4.913739 0.01892,-8.934072 0.04376,-8.934072 0.02484,0 0.575915,0.307157 1.224608,0.68257 l 1.179442,0.68257 v 8.947303 c 0,4.921016 -0.01363,8.947302 -0.0303,8.947302 -0.01666,0 -0.567105,-0.31311 -1.223204,-0.6958 z"
       id="path6" />
    <path
       style="fill:#ffffff;fill-opacity:1;stroke:#000000;stroke-width:0.111328"
       d="m 8.8086827,32.623807 -1.224608,-0.698534 -0.0285,-8.942715 c -0.02633,-8.263631 -0.01458,-8.937375 0.154784,-8.872384 0.100804,0.03868 0.677226,0.347563 1.280937,0.686402 l 1.0976573,0.61607 v 8.955637 c 0,4.9256 -0.01253,8.955282 -0.02783,8.954847 -0.01531,-4.34e-4 -0.5789063,-0.315129 -1.2524403,-0.699323 z"
       id="path7" />
    <path
       style="fill:#ffffff;fill-opacity:1;stroke:#000000;stroke-width:0.111328"
       d="m 2.3516587,28.907452 c -0.551073,-0.33255 -1.077098,-0.679001 -1.168944,-0.769891 -0.145075,-0.143565 -0.170994,-1.307575 -0.19748598,-8.869006 -0.01677,-4.787063 -0.005,-8.770212 0.02618,-8.851443 0.06681,-0.174093 0.113119,-0.153658 1.535074,0.677327 l 0.97412,0.569272 -0.0078,8.742704 c -0.0043,4.808488 -0.04188,8.824373 -0.0835,8.924188 -0.06386,0.153159 -0.232053,0.08711 -1.077624,-0.423151 z"
       id="path8" />
    <path
       style="fill:#ffffff;fill-opacity:1;stroke:#000000;stroke-width:0.111328"
       d="m 15.71102,17.948045 c -1.410107,-0.79941 -1.406967,-0.794948 -0.820896,-1.166658 0.926208,-0.587441 1.789282,-1.047292 1.965614,-1.047292 0.194218,0 2.315798,1.170929 2.416342,1.333612 0.06055,0.09797 -2.22376,1.45016 -2.44778,1.448957 -0.06123,-3.29e-4 -0.562207,-0.256207 -1.11328,-0.568619 z"
       id="path9" />
  </g>
</svg>
